<?xml version="1.0" standalone="no"?>
<!DOCTYPE svg PUBLIC "-//W3C//DTD SVG 20010904//EN"
 "http://www.w3.org/TR/2001/REC-SVG-20010904/DTD/svg10.dtd">
<svg version="1.0" xmlns="http://www.w3.org/2000/svg"
 width="855.000000pt" height="298.000000pt" viewBox="0 0 855.000000 298.000000"
 preserveAspectRatio="xMidYMid meet">
<metadata>
Created by potrace 1.15, written by Peter Selinger 2001-2017
</metadata>
<g transform="translate(0.000000,298.000000) scale(0.100000,-0.100000)"
fill="#000000" stroke="none">
<path d="M1134 2546 c-83 -19 -137 -48 -202 -110 -132 -125 -168 -324 -89
-489 128 -266 474 -327 683 -120 124 123 163 317 95 476 -77 179 -293 286
-487 243z m208 -76 c91 -27 180 -115 218 -217 20 -53 31 -196 16 -211 -3 -2
-37 25 -75 61 -50 47 -81 68 -106 73 -111 21 -215 -63 -215 -173 0 -61 14 -88
81 -159 61 -63 61 -63 35 -70 -14 -3 -57 -4 -94 -2 -182 11 -321 154 -330 341
-6 106 -2 112 45 87 50 -26 109 -25 164 3 80 42 112 152 69 237 l-20 39 23 5
c33 7 147 -1 189 -14z m-249 -72 c22 -45 15 -78 -25 -118 -22 -22 -39 -30 -65
-30 -40 0 -93 27 -93 48 0 23 127 144 147 140 10 -2 26 -19 36 -40z m315 -302
c15 -8 53 -41 85 -74 l58 -59 -33 -44 c-19 -24 -53 -58 -77 -77 l-44 -33 -59
58 c-33 32 -66 70 -74 85 -49 94 50 193 144 144z"/>
<path d="M3022 1473 l3 -868 152 -3 153 -3 2 618 3 618 274 -409 274 -410 21
27 c56 70 493 733 660 1000 l185 297 -163 0 -164 0 -267 -416 -268 -416 -31
49 c-17 27 -137 214 -266 416 l-235 367 -167 0 -168 0 2 -867z"/>
<path d="M5042 2331 c2 -5 278 -396 613 -870 l610 -861 125 3 125 2 3 868 2
867 -150 0 -150 0 0 -597 c0 -583 0 -597 -19 -578 -10 11 -204 280 -430 598
l-412 577 -160 0 c-89 0 -159 -4 -157 -9z"/>
<path d="M6880 1475 l0 -865 145 0 145 0 0 203 1 202 525 565 c290 311 567
609 616 663 l90 97 -200 0 -200 0 -408 -422 c-224 -233 -412 -424 -416 -426
-4 -2 -8 188 -8 422 l0 426 -145 0 -145 0 0 -865z"/>
<path d="M255 1966 c-40 -17 -82 -67 -95 -114 -6 -24 -10 -264 -10 -667 0
-590 2 -633 19 -670 22 -50 71 -92 114 -100 18 -3 455 -4 973 -3 l941 3 35 27
c71 54 69 35 66 773 l-3 660 -23 33 c-13 18 -41 41 -63 52 -36 19 -56 20 -271
18 l-233 -3 0 -25 0 -25 225 -5 c193 -4 230 -8 253 -22 54 -36 52 -15 52 -705
0 -636 0 -642 -21 -670 -41 -55 -22 -54 -1008 -51 -1001 3 -940 -1 -971 64
-23 48 -23 1270 0 1318 28 58 38 61 287 64 213 3 228 5 233 23 4 10 3 23 0 29
-10 16 -463 12 -500 -4z"/>
<path d="M5002 1285 l3 -680 150 0 150 0 3 461 2 461 -146 209 c-81 115 -151
213 -155 219 -5 5 -8 -283 -7 -670z"/>
<path d="M4596 1656 l-146 -215 0 -420 0 -421 150 0 150 0 0 635 c0 349 -2
635 -4 635 -2 0 -69 -96 -150 -214z"/>
<path d="M660 1815 c-5 -14 -10 -31 -10 -36 0 -5 -68 -9 -162 -9 -90 0 -169
-4 -176 -9 -8 -4 -12 -19 -10 -32 l3 -24 173 -3 172 -2 0 -505 0 -505 -172 -2
-173 -3 -3 -24 c-2 -13 2 -28 10 -32 7 -5 85 -9 173 -9 l161 0 9 -32 c8 -26
15 -33 35 -33 21 0 26 5 28 33 l3 32 234 0 234 0 3 -26 c6 -55 68 -59 68 -4
l0 30 234 0 235 0 3 -26 c6 -55 68 -59 68 -5 l0 31 171 2 c148 3 173 5 182 20
8 12 7 21 -2 32 -11 13 -40 16 -182 16 l-169 0 0 505 0 505 174 0 c167 0 175
1 181 20 14 45 -6 50 -186 50 l-168 0 -3 26 c-6 56 -68 53 -68 -2 0 -22 -4
-24 -57 -24 -69 0 -86 -9 -81 -41 3 -22 8 -24 71 -27 l67 -3 0 -234 0 -235
-235 0 -235 0 -2 193 -3 192 -26 3 c-36 4 -39 -10 -39 -215 l0 -173 -235 0
-235 0 0 235 0 235 65 0 c55 0 66 3 75 21 19 34 -3 49 -76 49 l-63 0 -3 33
c-4 43 -43 52 -58 12z m530 -890 l0 -235 -235 0 -235 0 0 235 0 235 235 0 235
0 0 -235z m540 0 l0 -235 -235 0 -235 0 0 235 0 235 235 0 235 0 0 -235z"/>
<path d="M7710 1253 c-52 -58 -95 -109 -95 -113 0 -5 96 -126 213 -269 l213
-261 180 0 c98 0 179 3 178 8 -1 12 -573 735 -584 738 -5 1 -53 -45 -105 -103z"/>
</g>
</svg>
