<?xml version="1.0" standalone="no"?>
<!DOCTYPE svg PUBLIC "-//W3C//DTD SVG 20010904//EN"
 "http://www.w3.org/TR/2001/REC-SVG-20010904/DTD/svg10.dtd">
<svg version="1.0" xmlns="http://www.w3.org/2000/svg"
 width="736.000000pt" height="1104.000000pt" viewBox="0 0 736.000000 1104.000000"
 preserveAspectRatio="xMidYMid meet">
<metadata>
Created by potrace 1.15, written by Peter Selinger 2001-2017
</metadata>
<g transform="translate(0.000000,1104.000000) scale(0.100000,-0.100000)"
fill="#000000" stroke="none">
<path d="M0 6921 l0 -4120 42 4 c145 14 356 22 773 30 503 10 921 24 1175 41
41 3 100 6 130 8 137 8 445 28 455 29 6 1 10 -20 9 -53 -1 -60 -62 -222 -252
-665 l-98 -230 -60 -3 c-54 -3 -57 -2 -39 12 11 8 16 18 12 23 -8 8 -136 13
-422 16 -71 1 -350 -2 -620 -8 -576 -11 -608 -10 -785 15 -74 11 -177 22 -227
26 l-93 7 0 -137 c0 -75 1 -136 3 -137 1 -1 63 -7 137 -13 81 -8 199 -10 295
-7 253 9 623 3 833 -15 106 -9 218 -14 250 -11 49 3 461 -25 559 -39 29 -4 31
-7 21 -24 -7 -10 -37 -25 -72 -35 -88 -23 -116 -36 -116 -50 0 -15 64 -40 79
-31 5 3 18 3 30 -2 19 -7 13 -21 -93 -226 l-112 -219 -45 -3 c-116 -7 -238
-13 -277 -14 -24 0 -41 -4 -38 -9 4 -5 32 -8 64 -6 31 2 108 6 170 10 61 4
112 4 112 1 0 -11 -79 -164 -87 -169 -5 -2 -27 -2 -51 1 -35 3 -41 7 -31 18 6
8 26 14 43 14 58 1 2 27 -97 45 -51 9 -150 28 -222 43 l-130 27 110 6 c61 3
106 6 100 8 -5 1 -86 3 -180 5 -96 2 -181 8 -195 14 l-25 11 25 1 c23 1 23 2
5 10 -12 5 -15 9 -5 9 23 1 -1 18 -37 26 -20 4 -33 3 -33 -3 0 -6 -8 -13 -17
-15 -12 -3 -10 -5 7 -6 14 -1 32 -6 40 -12 11 -8 5 -9 -25 -4 -22 3 -84 10
-139 15 -54 5 -106 11 -115 14 -9 3 -79 7 -156 11 -77 3 -160 8 -185 10 -25 3
-119 10 -210 16 -90 6 -169 11 -174 12 -4 1 -10 -3 -12 -9 -3 -6 16 -11 48
-12 79 -3 202 -14 207 -18 2 -2 -34 -4 -82 -4 -47 0 -93 -3 -103 -7 -12 -4
-15 -3 -10 5 5 8 -4 12 -28 12 l-36 0 0 -234 0 -234 28 -8 27 -7 -30 -7 c-29
-7 -29 -8 10 -10 81 -5 91 -6 150 -15 33 -5 112 -9 175 -10 63 -1 217 -6 343
-10 168 -6 227 -5 227 4 0 6 -8 11 -17 12 -17 0 -17 1 -1 7 17 7 153 4 146 -4
-2 -2 -21 -5 -42 -8 -21 -3 -41 -7 -44 -10 -10 -11 69 -6 90 5 15 8 22 8 28
-1 5 -9 26 -10 71 -6 102 11 556 -34 587 -57 8 -6 12 -6 12 0 0 6 20 7 53 2
46 -7 252 -33 587 -74 63 -8 144 -19 180 -25 67 -10 196 -27 265 -35 58 -6
252 -31 552 -70 144 -19 333 -42 420 -50 87 -9 205 -22 263 -30 198 -26 244
-28 283 -11 43 18 227 135 227 145 0 17 88 59 123 58 26 -1 44 5 60 21 l22 22
-37 37 -37 37 -13 -30 c-14 -32 -46 -63 -65 -64 -7 0 -13 -4 -13 -10 0 -5 8
-7 18 -4 10 3 4 -5 -13 -20 -21 -18 -31 -22 -37 -13 -5 8 -8 6 -8 -7 0 -12 -5
-16 -16 -12 -8 3 -37 -7 -64 -22 -38 -22 -47 -31 -38 -40 9 -9 9 -12 1 -12 -7
0 -15 5 -18 10 -4 6 -11 8 -16 4 -6 -3 -5 -12 3 -22 12 -13 10 -14 -9 -3 -20
10 -22 9 -17 -6 4 -12 -3 -8 -18 9 -13 15 -34 62 -48 105 -14 43 -30 89 -37
103 -7 14 -16 42 -19 63 -4 20 -10 37 -14 37 -4 0 -12 18 -18 40 -11 43 -9 45
43 41 19 -1 19 -1 2 10 -11 6 -30 9 -43 6 -13 -2 -24 1 -24 6 0 6 -19 58 -41
116 -23 58 -43 115 -45 126 -2 11 -19 61 -38 110 -20 50 -35 98 -36 107 0 9
-4 19 -9 22 -5 3 -7 15 -4 26 3 11 1 20 -4 20 -6 0 -20 33 -33 72 -12 40 -30
98 -40 128 -16 48 -32 100 -54 175 -6 20 -3 20 102 13 59 -3 167 -8 240 -9
118 -3 137 -5 170 -26 20 -13 54 -31 74 -40 21 -10 38 -22 38 -26 0 -24 187
-436 330 -730 37 -76 59 -132 54 -137 -6 -6 -62 -3 -139 5 -190 22 -281 28
-272 19 7 -7 294 -42 356 -43 20 -1 12 -10 -47 -55 -57 -42 -69 -56 -59 -64
10 -9 26 -3 64 23 54 36 80 64 49 52 -10 -4 -15 -3 -11 4 4 5 14 7 23 5 22 -7
43 6 46 28 1 10 8 21 15 26 9 5 10 10 2 14 -6 4 -11 16 -11 27 0 23 -7 40
-130 294 -80 165 -113 238 -210 460 -33 76 -42 70 114 71 77 1 164 7 191 13
28 7 62 15 77 18 15 3 33 12 40 21 11 13 10 15 -11 9 -33 -8 -193 43 -187 60
4 9 -3 13 -20 13 -14 0 -23 4 -20 9 7 11 -17 21 -50 21 -14 0 -22 4 -19 10 4
6 -5 10 -20 10 -76 0 -120 52 -91 107 13 26 14 26 20 5 4 -12 5 -26 1 -32 -3
-5 -1 -18 4 -27 9 -16 10 -15 11 7 0 20 2 22 10 10 5 -8 10 -10 10 -4 0 5 -5
15 -12 22 -9 9 -9 12 2 12 13 0 13 2 0 10 -10 7 -11 10 -2 10 8 0 10 8 7 23
-5 19 0 26 29 40 35 16 48 48 26 62 -14 8 -13 72 1 81 11 6 8 65 -7 127 -4 17
-2 27 5 27 6 0 11 -6 11 -12 0 -7 8 -22 16 -33 15 -19 15 -19 8 10 -9 38 -24
57 -40 51 -7 -3 -16 -1 -19 4 -4 6 -1 10 5 10 6 0 8 5 5 10 -6 10 15 15 44 10
13 -1 13 1 2 14 -8 9 -27 16 -43 16 -28 0 -30 2 -23 28 4 15 8 35 10 44 2 10
11 32 19 50 29 64 58 154 74 233 9 44 19 82 22 85 3 3 7 23 8 44 2 22 6 44 9
50 4 5 6 30 5 55 -1 35 1 41 8 26 8 -18 9 -18 9 -2 1 10 6 15 11 12 6 -4 10 6
11 22 2 35 4 53 24 200 29 205 35 403 15 428 -6 8 -7 16 -2 19 5 3 7 16 5 29
-6 29 -43 35 -43 6 0 -29 -18 -23 -23 9 -2 15 -5 0 -6 -33 -3 -69 -19 -50 -20
23 -1 23 -4 42 -8 42 -5 0 -6 -23 -5 -50 2 -28 1 -58 -3 -68 -7 -15 -8 -15
-15 3 -6 13 -9 -7 -10 -60 -2 -62 -4 -73 -10 -47 -11 45 -16 48 -24 12 -3 -17
-10 -29 -14 -26 -7 4 -33 -218 -31 -269 l0 -20 10 20 c8 17 9 17 4 -5 -2 -14
-5 -51 -5 -82 0 -35 -5 -62 -14 -70 -8 -8 -16 -23 -19 -34 -13 -51 -5 295 9
406 9 69 17 182 17 251 l0 126 37 -18 c21 -10 64 -26 97 -35 58 -16 64 -16
159 5 54 12 103 26 108 31 22 22 26 3 26 -143 0 -161 -21 -316 -75 -542 -14
-59 -25 -111 -25 -115 0 -5 10 -7 23 -5 21 4 23 0 35 -84 36 -265 203 -519
367 -556 18 -4 3 6 -35 26 -120 61 -211 178 -272 350 -72 205 -62 449 29 649
38 84 128 212 167 239 20 13 33 28 29 34 -3 6 -1 7 5 3 12 -7 68 74 90 129 14
34 33 165 27 176 -3 4 -8 164 -11 356 l-7 348 52 14 c29 7 54 12 55 10 2 -2 9
-96 16 -209 23 -410 39 -585 55 -630 34 -97 86 -163 188 -239 139 -105 243
-317 264 -533 l6 -69 71 6 c39 3 209 7 379 10 224 4 307 2 307 -6 0 -9 4 -9
14 0 10 9 313 24 449 22 16 0 17 198 17 4020 l0 4019 -3680 0 -3680 0 0 -4119z
m4784 2085 c3 -7 8 -6 15 4 8 11 11 12 11 2 0 -8 9 -25 20 -39 24 -31 26 -15
4 30 l-15 32 19 -25 c11 -13 26 -41 33 -63 17 -51 29 -56 23 -10 -5 37 -4 37
16 -12 24 -59 31 -136 13 -142 -7 -3 -13 1 -13 7 0 16 -36 61 -43 53 -4 -3 -2
-15 4 -26 6 -11 7 -17 1 -13 -5 3 -15 19 -22 36 -7 16 -16 27 -21 24 -5 -3 -9
1 -9 8 0 9 -3 9 -10 -2 -8 -13 -10 -12 -10 3 0 9 4 17 9 17 14 0 -4 57 -24 76
-22 23 -45 70 -37 78 6 7 26 -14 36 -38z m-59 -261 c28 -27 30 -41 14 -82 -6
-15 -15 -67 -20 -115 -8 -79 -26 -140 -46 -151 -5 -2 -30 -1 -58 2 -27 4 -66
3 -86 -2 -39 -9 -73 2 -116 41 -30 26 -29 35 7 49 43 16 37 29 -22 51 -44 17
-49 20 -30 26 12 4 43 4 68 0 52 -8 54 5 4 26 -16 7 -30 16 -30 20 0 14 61 30
87 24 22 -6 24 -4 19 14 -6 17 5 30 54 71 72 60 115 67 155 26z m-34 -491 c1
-145 34 -231 107 -282 85 -60 123 -82 140 -82 9 -1 28 -7 42 -15 14 -8 35 -14
48 -15 13 0 57 -16 98 -35 41 -19 80 -35 87 -35 18 0 112 -91 129 -125 15 -30
27 -105 48 -305 6 -58 13 -117 15 -132 2 -19 -1 -28 -11 -28 -16 0 -37 36 -29
50 3 5 1 11 -4 14 -5 4 -8 18 -5 31 2 14 1 25 -3 25 -9 0 -11 28 -14 188 0 61
-5 112 -10 112 -5 0 -9 5 -9 11 0 5 5 7 11 4 6 -4 5 2 -3 14 -7 12 -18 21 -25
21 -7 0 -13 5 -13 11 0 8 -5 8 -15 -1 -12 -10 -15 -10 -15 3 0 13 -20 24 -55
31 -5 1 -18 -2 -27 -6 -13 -6 -18 -5 -18 7 0 21 -19 19 -40 -5 -12 -14 -19
-47 -24 -112 -4 -51 -11 -111 -17 -133 -18 -78 -68 -622 -72 -798 -1 -51 -6
-100 -11 -109 -6 -13 0 -26 22 -48 17 -16 27 -30 23 -30 -4 0 -6 -13 -3 -30 2
-16 1 -41 -2 -55 -5 -21 -11 -24 -34 -19 -21 4 -24 3 -12 -5 8 -6 10 -11 4
-11 -5 0 -19 7 -30 15 -11 9 -13 13 -4 10 31 -10 44 10 34 56 -7 34 -13 43
-32 44 -37 3 -49 -35 -27 -84 13 -30 30 -46 64 -63 25 -12 51 -22 56 -22 6 1
11 -6 12 -15 3 -33 54 -219 83 -298 29 -82 29 -83 9 -94 -11 -6 -23 -8 -27 -5
-12 13 -52 142 -72 234 -26 120 -36 141 -80 168 -19 12 -48 35 -64 50 -25 25
-27 26 -17 6 7 -12 29 -33 51 -47 22 -14 43 -33 49 -42 5 -10 19 -70 30 -133
12 -63 30 -146 40 -183 l19 -68 -22 -9 c-19 -7 -23 -2 -38 49 -10 31 -27 112
-39 181 -11 69 -26 134 -32 146 -7 11 -32 38 -56 60 l-44 39 27 -45 27 -45
-35 37 c-32 34 -51 78 -27 63 5 -3 21 21 36 52 24 53 26 65 21 148 -19 300
-19 312 -1 465 10 85 18 194 19 241 1 48 4 82 7 77 6 -10 12 58 25 280 5 92 4
112 -7 112 -11 0 -11 2 1 10 12 8 9 10 -12 10 -16 0 -28 5 -28 11 0 6 -9 9
-20 6 -11 -3 -20 -2 -20 2 0 4 -16 13 -35 20 -19 7 -35 17 -35 22 0 6 -5 7
-12 3 -6 -4 -17 1 -24 10 -8 12 -18 15 -26 10 -7 -5 -22 -10 -32 -11 -11 -2
-33 -10 -49 -18 -27 -13 -28 -13 -16 2 12 15 12 16 -4 10 -42 -16 -241 -18
-292 -4 l-50 14 30 14 c17 7 68 13 119 13 l89 1 12 48 c14 55 9 97 -11 97 -20
0 -32 36 -39 123 l-6 77 41 27 c23 16 56 40 74 55 30 25 77 49 84 43 1 -1 3
-38 3 -81z m-401 -423 c0 -5 -6 -12 -12 -15 -9 -3 -7 -10 7 -22 18 -15 18 -16
2 -10 -10 3 -23 6 -28 6 -6 0 -7 5 -3 12 5 8 2 9 -9 5 -9 -3 -19 -1 -23 5 -4
7 -3 8 4 4 7 -4 12 -3 12 3 0 8 16 16 43 20 4 0 7 -3 7 -8z m18 -81 c7 0 12
-54 14 -152 3 -135 -4 -340 -11 -313 -1 6 -13 -24 -27 -65 -25 -73 -26 -81
-21 -270 4 -127 11 -213 20 -248 13 -44 13 -61 2 -107 -16 -70 -25 -80 -25
-28 0 22 -3 43 -7 47 -36 36 -50 281 -52 898 l-1 287 49 -24 c27 -14 54 -25
59 -25z m-136 -77 c5 -279 -1 -463 -14 -460 -7 1 -14 -6 -16 -15 -2 -11 2 -18
11 -18 20 0 25 -41 25 -180 0 -63 -3 -101 -5 -85 -3 17 -9 34 -14 40 -5 5 -9
44 -9 88 0 43 -4 76 -8 73 -13 -8 -13 -5 -20 329 -6 263 -5 312 7 323 35 29
41 15 43 -95z m1045 -139 c-19 -40 -22 -42 -29 -24 -9 24 -1 68 15 88 9 11 13
11 23 -3 10 -14 9 -25 -9 -61z m-1179 49 c5 -18 -23 -16 -39 3 -11 14 -10 15
11 12 13 -1 25 -9 28 -15z m-191 -45 c-3 -8 -6 -5 -6 6 -1 11 2 17 5 13 3 -3
4 -12 1 -19z m-18 -40 c-1 -42 -1 -42 -10 -13 -5 17 -7 36 -4 43 9 24 15 11
14 -30z m28 0 c-3 -8 -6 -5 -6 6 -1 11 2 17 5 13 3 -3 4 -12 1 -19z m1060
-250 c-3 -7 -5 -2 -5 12 0 14 2 19 5 13 2 -7 2 -19 0 -25z m461 -54 c25 -5 32
-13 40 -48 6 -22 13 -73 16 -113 6 -66 4 -73 -16 -87 -30 -21 -38 -20 -38 4 0
12 7 20 18 20 14 0 15 2 2 10 -8 5 -44 8 -80 5 -36 -2 -57 -2 -48 1 9 3 20 14
23 24 6 20 33 30 83 30 58 0 32 25 -30 28 l-55 3 5 51 4 51 -58 -6 c-70 -7
-41 8 40 22 28 5 54 9 57 10 4 0 20 -2 37 -5z m-211 -36 c-3 -8 -6 -5 -6 6 -1
11 2 17 5 13 3 -3 4 -12 1 -19z m-1517 -24 c-37 -8 -88 -9 -84 -2 3 4 26 7 52
7 26 -1 40 -3 32 -5z m-12 -21 c-10 -2 -28 -2 -40 0 -13 2 -5 4 17 4 22 1 32
-1 23 -4z m1519 -55 c-3 -7 -5 -2 -5 12 0 14 2 19 5 13 2 -7 2 -19 0 -25z
m-1553 -13 c11 -8 31 -15 45 -16 14 0 35 -4 46 -9 12 -5 -9 -6 -52 -3 -51 4
-77 2 -88 -7 -12 -10 -15 -10 -15 4 0 9 8 16 19 16 11 0 23 5 27 11 4 8 -1 9
-17 4 -19 -5 -21 -4 -9 4 19 14 21 13 44 -4z m1541 -90 c-3 -26 -8 -45 -11
-43 -2 3 -1 26 2 52 4 25 9 44 12 42 2 -3 1 -26 -3 -51z m-325 -75 c-7 -4 -7
-15 -2 -30 6 -15 11 -19 16 -12 11 18 26 14 26 -7 0 -30 -11 -51 -26 -51 -8 0
-14 -7 -14 -15 0 -8 -4 -15 -8 -15 -9 0 -28 55 -36 107 -4 26 -2 31 10 26 13
-5 15 -1 9 18 -8 24 -8 24 14 5 13 -12 17 -22 11 -26z m573 -175 c4 -158 8
-201 26 -255 33 -101 87 -366 116 -570 33 -233 39 -261 66 -335 12 -33 25 -96
28 -141 6 -63 15 -96 43 -157 37 -78 46 -133 32 -203 -4 -24 -10 -30 -24 -27
-20 5 -30 -22 -29 -77 l1 -35 9 40 c15 64 29 66 29 3 0 -62 -7 -91 -21 -83 -4
3 -6 -24 -2 -60 5 -51 2 -74 -12 -105 -18 -39 -25 -46 -38 -34 -4 4 2 15 13
24 22 19 22 60 0 145 -5 22 -10 64 -10 93 0 41 -5 58 -20 70 -11 10 -22 30
-24 45 -5 26 -3 28 19 23 14 -4 25 -2 25 4 0 5 -8 10 -18 10 -11 0 -26 8 -34
18 -17 19 -58 193 -58 247 0 39 -27 115 -41 115 -5 0 -9 30 -9 68 0 37 -7 101
-15 142 -22 114 -55 261 -67 298 -7 24 -7 37 1 45 6 6 11 29 11 52 0 58 -47
321 -82 455 -17 63 -37 154 -46 202 -15 83 -15 88 3 108 28 31 108 81 116 73
4 -5 9 -93 12 -198z m-286 73 c-3 -8 -6 -5 -6 6 -1 11 2 17 5 13 3 -3 4 -12 1
-19z m-231 -25 c-10 -10 -19 5 -10 18 6 11 8 11 12 0 2 -7 1 -15 -2 -18z m-52
-34 c-5 -8 4 -10 29 -7 36 4 37 3 34 -28 -2 -36 -16 -36 -59 4 -32 29 -35 42
-12 42 9 0 12 -5 8 -11z m216 -19 c0 -5 -4 -10 -10 -10 -5 0 -10 5 -10 10 0 6
5 10 10 10 6 0 10 -4 10 -10z m0 -34 c0 -3 -4 -8 -10 -11 -5 -3 -10 -1 -10 4
0 6 5 11 10 11 6 0 10 -2 10 -4z m-166 -42 c11 -28 7 -35 -13 -22 -10 6 -17
18 -14 25 7 18 20 16 27 -3z m302 -198 c12 -32 14 -51 8 -53 -15 -5 -5 -53 12
-60 8 -3 14 -19 14 -37 0 -58 21 -149 47 -199 13 -27 26 -68 28 -91 2 -22 20
-85 39 -139 44 -119 59 -209 57 -343 -1 -72 5 -126 20 -190 12 -49 32 -147 46
-219 14 -71 27 -141 30 -155 4 -22 1 -26 -21 -28 -14 -1 -26 3 -26 9 0 5 4 8
8 5 4 -2 14 -1 21 3 10 7 10 11 -1 22 -7 8 -15 30 -16 49 -2 19 -7 37 -11 40
-4 3 -15 57 -26 120 -10 63 -28 162 -41 220 -64 300 -85 372 -135 474 -31 61
-28 75 12 76 9 0 19 7 23 15 6 17 -5 20 -20 5 -6 -6 -18 -8 -28 -4 -16 6 -15
8 3 26 25 23 25 24 5 32 -8 3 -12 2 -9 -4 11 -18 -1 -11 -21 12 -10 12 -13 18
-6 14 8 -5 12 1 12 21 0 16 -6 35 -12 42 -11 10 -9 15 6 26 17 13 17 14 -3 36
-11 12 -18 26 -15 31 3 5 -4 18 -17 29 -17 14 -18 19 -6 19 9 0 14 7 12 18 -2
9 -4 25 -4 35 -1 10 -5 16 -10 12 -12 -7 -31 26 -31 54 0 12 9 30 20 41 11 11
20 17 20 13 0 -3 2 -4 5 -1 3 3 -2 21 -10 41 -8 20 -15 40 -15 44 0 16 19 -15
36 -61z m-979 -58 c-3 -7 -5 -2 -5 12 0 14 2 19 5 13 2 -7 2 -19 0 -25z m1000
-40 c-3 -7 -5 -2 -5 12 0 14 2 19 5 13 2 -7 2 -19 0 -25z m-1020 -20 c-3 -7
-5 -2 -5 12 0 14 2 19 5 13 2 -7 2 -19 0 -25z m930 -10 c-3 -8 -6 -5 -6 6 -1
11 2 17 5 13 3 -3 4 -12 1 -19z m-911 -55 c-10 -10 -19 5 -10 18 6 11 8 11 12
0 2 -7 1 -15 -2 -18z m-9 -245 c-2 -18 -4 -6 -4 27 0 33 2 48 4 33 2 -15 2
-42 0 -60z m70 5 c-3 -10 -5 -4 -5 12 0 17 2 24 5 18 2 -7 2 -21 0 -30z m-60
-239 c-3 -3 -12 -4 -19 -1 -8 3 -5 6 6 6 11 1 17 -2 13 -5z m-515 -236 c-7 -7
-12 -8 -12 -2 0 14 12 26 19 19 2 -3 -1 -11 -7 -17z m-1212 -2 c0 -2 -9 -6
-20 -9 -11 -3 -20 -1 -20 4 0 5 9 9 20 9 11 0 20 -2 20 -4z m1164 -33 c3 -8
-2 -13 -13 -13 -10 0 -21 6 -24 14 -4 10 0 14 13 13 11 -1 22 -7 24 -14z m46
-4 c0 -6 -4 -7 -10 -4 -5 3 -10 11 -10 16 0 6 5 7 10 4 6 -3 10 -11 10 -16z
m557 15 c-3 -3 -12 -4 -19 -1 -8 3 -5 6 6 6 11 1 17 -2 13 -5z m-1797 -14 c0
-5 12 -10 26 -10 14 0 23 -4 19 -9 -6 -11 -44 -9 -63 3 -17 10 -15 26 3 26 8
0 15 -4 15 -10z m637 4 c-3 -3 -12 -4 -19 -1 -8 3 -5 6 6 6 11 1 17 -2 13 -5z
m1313 -44 c0 -11 -2 -20 -4 -20 -2 0 -6 9 -9 20 -3 11 -1 20 4 20 5 0 9 -9 9
-20z m-1165 -10 c3 -5 1 -10 -4 -10 -6 0 -11 5 -11 10 0 6 2 10 4 10 3 0 8 -4
11 -10z m-768 -242 c-3 -8 -6 -5 -6 6 -1 11 2 17 5 13 3 -3 4 -12 1 -19z
m1420 -125 c-3 -10 -5 -4 -5 12 0 17 2 24 5 18 2 -7 2 -21 0 -30z m-122 7 c-3
-5 -13 -10 -21 -10 -8 0 -12 5 -9 10 3 6 13 10 21 10 8 0 12 -4 9 -10z m35 0
c0 -5 -2 -10 -4 -10 -3 0 -8 5 -11 10 -3 6 -1 10 4 10 6 0 11 -4 11 -10z m56
-88 c-2 -48 -4 -108 -5 -134 -1 -36 -5 -48 -16 -48 -11 0 -15 12 -15 46 0 25
4 43 8 40 4 -2 6 24 4 59 -2 36 -1 73 3 82 5 10 7 26 6 37 -2 11 2 16 8 12 7
-5 10 -38 7 -94z m-158 79 c7 -4 12 -14 10 -22 -2 -10 5 -13 25 -11 25 3 28 1
27 -30 0 -18 3 -53 7 -78 l8 -45 6 65 6 65 1 -72 c1 -40 -2 -73 -6 -73 -5 0
-7 -13 -4 -30 l4 -30 -72 0 -72 0 7 103 c6 94 21 167 35 167 3 0 11 -4 18 -9z
m189 -43 c-3 -8 -6 -5 -6 6 -1 11 2 17 5 13 3 -3 4 -12 1 -19z m1310 -280 c-2
-7 -12 -40 -22 -73 -19 -68 -53 -139 -84 -175 l-21 -25 6 110 c4 61 10 117 15
127 5 9 28 23 51 31 54 19 61 20 55 5z m-807 -129 c0 -4 9 -11 20 -14 37 -12
20 -25 -32 -25 -34 0 -48 3 -39 9 16 10 6 31 -15 31 -11 0 -13 7 -8 28 4 15 9
31 11 35 5 9 63 -51 63 -64z m-653 36 l35 -15 -6 -108 c-4 -59 -9 -123 -13
-142 -5 -30 -7 -32 -14 -13 -11 31 -56 57 -95 56 l-34 -1 0 69 0 69 31 0 c17
0 43 -8 57 -18 44 -30 52 -34 52 -22 0 6 -13 25 -29 41 -22 21 -39 29 -65 29
-34 0 -36 2 -36 35 0 34 1 35 40 35 22 0 57 -7 77 -15z m109 -127 c6 -33 10
-38 33 -38 46 0 51 -9 40 -85 -5 -39 -12 -99 -16 -135 l-8 -65 -5 54 c-6 62
-24 78 -34 30 -3 -18 -18 -48 -32 -67 l-26 -34 32 4 c20 2 35 -2 37 -9 3 -9
-8 -13 -36 -13 -28 0 -43 -5 -50 -17 -9 -17 -11 -17 -25 2 -10 15 -11 21 -3
25 14 6 13 1 21 125 11 174 17 249 23 279 l5 29 19 -24 c10 -13 22 -41 25 -61z
m-266 62 c0 -5 -5 -10 -11 -10 -5 0 -7 5 -4 10 3 6 8 10 11 10 2 0 4 -4 4 -10z
m-452 -36 c24 -16 24 -17 17 -137 -5 -67 -8 -128 -8 -134 0 -15 0 -15 -21 -7
-9 3 -16 12 -16 20 0 19 -19 18 -26 -1 -4 -8 -14 -15 -24 -15 -11 0 -22 -4
-25 -10 -3 -5 -18 -10 -33 -10 -15 0 -22 4 -17 8 6 4 12 16 13 26 3 18 2 18
-13 6 -19 -16 -31 -4 -41 40 -11 47 -17 57 -22 35 -11 -51 -22 -34 -22 33 0
56 3 72 14 72 8 0 21 7 30 15 8 8 32 19 53 24 36 8 37 8 12 15 -16 5 -40 2
-64 -8 -48 -20 -47 -20 -43 7 2 17 10 23 33 24 17 1 46 6 65 11 45 12 108 5
138 -14z m447 -121 c-4 -12 -9 -10 -23 8 -20 24 -48 18 -38 -8 3 -8 2 -12 -3
-9 -24 15 -42 -131 -21 -164 6 -10 21 -14 45 -11 l36 3 -7 -99 c-6 -98 -16
-132 -28 -97 -4 11 -18 27 -31 37 -20 15 -25 15 -25 3 0 -8 6 -17 13 -19 7 -4
6 -6 -4 -6 -23 -1 -28 41 -29 268 0 184 1 193 17 180 10 -7 24 -20 31 -28 10
-13 14 -12 26 5 10 12 11 21 4 25 -6 4 -1 10 11 14 11 3 22 12 23 18 1 7 3
-14 5 -47 2 -32 2 -65 -2 -73z m-712 80 c-4 -26 -8 -28 -39 -25 -42 5 -43 17
-2 42 38 23 46 20 41 -17z m558 26 c18 -9 20 -20 18 -130 0 -65 -5 -119 -9
-119 -15 0 -18 -39 -4 -65 13 -26 17 -91 5 -110 -3 -5 -8 2 -11 17 l-5 27 -49
-24 c-45 -21 -76 -24 -76 -5 0 4 -8 16 -18 28 -17 19 -20 20 -34 5 -15 -14
-17 -13 -23 6 -3 11 -14 21 -23 21 -15 1 -15 2 2 15 17 13 17 15 3 21 -10 3
-17 10 -17 16 0 5 5 6 11 2 8 -4 8 -1 1 12 -6 11 -8 33 -6 49 4 25 3 26 -5 10
-8 -17 -10 -15 -10 15 -1 28 2 32 10 20 9 -12 9 -11 3 5 -10 26 -17 105 -12
136 3 23 5 22 22 -10 l18 -35 14 26 c16 30 72 68 100 68 14 -1 11 -5 -11 -17
-37 -19 -73 -52 -87 -77 -9 -16 -7 -18 9 -14 11 3 29 1 39 -4 17 -9 17 -8 -1
7 -19 15 -19 16 10 44 24 24 100 71 113 71 2 0 12 -5 23 -11z m-904 -71 c-3
-7 -5 -2 -5 12 0 14 2 19 5 13 2 -7 2 -19 0 -25z m304 -9 c-17 -14 -26 -17
-32 -8 -4 6 -12 8 -18 5 -6 -4 -11 -3 -11 3 0 5 15 12 33 14 17 2 37 4 42 5 6
1 -1 -8 -14 -19z m1191 -34 c40 -40 57 -101 47 -165 -5 -29 -12 -56 -16 -60
-4 -4 -39 -10 -77 -13 -56 -5 -66 -4 -53 6 11 9 17 37 22 107 9 150 14 171 34
161 9 -5 29 -21 43 -36z m1168 -102 c-12 -59 -24 -162 -26 -228 -5 -149 -8
-159 -39 -173 -69 -32 -251 -42 -308 -18 -43 18 -91 61 -83 74 3 6 1 14 -5 18
-8 4 -9 3 -5 -4 4 -7 2 -12 -3 -12 -7 0 -11 29 -11 78 1 57 3 72 11 59 23 -39
108 -62 264 -72 50 -3 95 -2 101 2 16 11 39 82 69 215 14 62 31 131 38 152 20
70 19 20 -3 -91z m-2324 80 c-5 -12 -10 -13 -17 -6 -8 8 -7 16 2 26 16 17 24
5 15 -20z m2238 -101 c0 -53 -4 -113 -8 -132 -7 -30 -31 -86 -42 -99 -5 -5
-74 40 -75 50 -1 5 -2 15 -3 22 -2 13 18 50 44 82 9 11 18 38 19 60 1 22 6 44
11 49 6 6 10 17 10 26 0 9 5 21 12 28 27 27 33 11 32 -86z m-1444 58 c0 -19
-18 -19 -23 -1 -3 14 -1 18 9 14 8 -3 14 -9 14 -13z m44 -6 c9 -24 7 -64 -3
-64 -5 0 -17 8 -27 18 -16 16 -16 17 -1 20 18 4 24 22 6 22 -5 0 -7 5 -4 10 9
15 22 12 29 -6z m-1167 -91 c-2 -16 -4 -5 -4 22 0 28 2 40 4 28 2 -13 2 -35 0
-50z m1043 42 c0 -8 -7 -15 -15 -15 -13 0 -14 3 -3 15 16 18 18 18 18 0z m51
-39 c5 3 17 0 26 -8 9 -7 14 -8 10 -2 -4 7 0 15 9 18 12 5 14 1 9 -15 -5 -15
-4 -19 4 -15 6 4 11 2 11 -3 0 -6 -7 -11 -15 -11 -21 0 -19 -13 5 -35 16 -15
22 -15 35 -5 10 8 15 9 15 1 0 -6 -4 -11 -9 -11 -13 0 -28 -70 -25 -122 1 -27
-1 -50 -6 -53 -4 -3 -6 -34 -3 -69 l5 -65 -39 -7 c-21 -4 -46 -11 -55 -16 -15
-7 -18 -4 -17 19 0 15 3 22 6 16 2 -7 13 -13 22 -13 23 0 71 47 71 69 -1 12
-6 10 -22 -9 l-21 -25 8 25 c6 20 5 23 -6 13 -16 -16 -38 10 -40 47 -1 24 -2
23 -10 -5 -5 -18 -6 16 -3 90 6 149 18 263 22 217 2 -18 8 -30 13 -26z m119
-36 c0 -11 -4 -20 -9 -20 -5 0 -7 9 -4 20 3 11 7 20 9 20 2 0 4 -9 4 -20z
m355 -10 c3 -5 1 -10 -4 -10 -6 0 -11 5 -11 10 0 6 2 10 4 10 3 0 8 -4 11 -10z
m-1458 -6 c-3 -3 -12 -4 -19 -1 -8 3 -5 6 6 6 11 1 17 -2 13 -5z m403 -39
c-22 -27 -31 -15 -13 18 13 25 18 28 21 14 2 -10 -2 -24 -8 -32z m1138 9 c3
-21 -1 -22 -82 -23 -48 0 -86 4 -86 8 0 5 17 7 38 5 20 -1 47 0 60 3 18 4 20
8 10 20 -10 12 -7 14 23 11 26 -2 35 -8 37 -24z m1309 -6 c-3 -7 -5 -2 -5 12
0 14 2 19 5 13 2 -7 2 -19 0 -25z m-2527 -13 c0 -13 -24 -55 -32 -55 -9 0 -28
41 -23 50 4 7 55 11 55 5z m790 -12 c0 -5 -5 -15 -10 -23 -8 -12 -10 -11 -10
8 0 12 5 22 10 22 6 0 10 -3 10 -7z m154 -5 c-3 -4 -31 -8 -62 -8 -31 0 -51 4
-45 8 16 10 113 10 107 0z m46 -28 c-19 -13 -30 -13 -30 0 0 6 10 10 23 10 18
0 19 -2 7 -10z m-156 -16 c24 -23 20 -44 -9 -44 -21 0 -25 5 -25 30 0 33 11
38 34 14z m96 7 c0 -5 -9 -7 -19 -4 -17 4 -19 -2 -23 -49 -2 -29 0 -54 4 -56
13 -6 9 -22 -6 -22 -7 0 -16 -9 -19 -20 -6 -24 -3 -25 28 -4 25 16 25 16 25
-13 0 -49 -21 -197 -29 -208 -5 -5 -7 -50 -5 -100 1 -49 -1 -108 -6 -130 -9
-42 -41 -76 -69 -74 -9 0 -1 7 17 15 41 18 35 30 -13 29 -33 -2 -36 0 -30 22
6 24 -9 32 -19 11 -3 -7 -4 28 -1 77 6 113 18 307 20 320 1 6 3 27 3 47 2 34
5 38 37 44 32 6 35 9 36 43 2 34 4 55 8 74 2 10 61 9 61 -2z m-988 -63 c-7 -7
-12 -8 -12 -2 0 6 3 14 7 17 3 4 9 5 12 2 2 -3 -1 -11 -7 -17z m448 -16 c0 -5
-14 -21 -31 -38 l-30 -29 11 30 c11 28 26 45 43 45 4 0 7 -4 7 -8z m387 -29
c-3 -10 -5 -4 -5 12 0 17 2 24 5 18 2 -7 2 -21 0 -30z m-650 -55 c32 -29 39
-74 17 -100 -11 -11 -27 -24 -37 -30 -16 -8 -18 -7 -12 11 5 16 3 19 -8 15 -8
-3 -17 2 -21 11 -4 11 -13 14 -25 10 -11 -3 -22 -1 -26 4 -4 7 0 8 10 4 15 -5
15 -3 4 15 -7 11 -15 20 -18 19 -4 -1 -7 2 -8 8 -1 5 -10 12 -20 16 -15 5 -11
10 22 25 47 23 91 20 122 -8z m53 5 c0 -26 -1 -26 -15 -7 -19 25 -19 34 0 34
10 0 15 -10 15 -27z m807 9 c10 -11 26 -22 35 -25 23 -8 58 -92 58 -139 0 -21
-6 -51 -14 -66 -8 -15 -17 -45 -21 -65 -5 -27 -11 -35 -19 -28 -7 6 -18 6 -26
1 -11 -7 -12 -13 -2 -32 7 -13 14 -41 16 -64 l4 -41 -54 -10 c-30 -5 -56 -7
-58 -4 -7 16 17 131 28 131 7 0 21 6 31 14 18 13 18 14 -2 40 -15 18 -23 23
-27 14 -3 -7 -4 52 -1 131 4 80 8 148 11 153 8 13 22 9 41 -10z m898 -133 c33
-6 83 -8 110 -5 49 6 150 39 171 57 25 21 34 -30 9 -55 -9 -9 -35 -21 -58 -27
-52 -14 -243 -12 -271 3 -46 24 -92 67 -93 89 -2 20 2 19 35 -14 30 -29 50
-39 97 -48z m-1161 -66 c-3 -49 -9 -119 -13 -158 -7 -62 -9 -65 -10 -22 -1 46
-1 47 -34 47 -47 0 -57 15 -57 85 l0 61 52 19 c48 17 50 19 27 27 -19 7 -21
11 -9 18 8 5 23 10 32 10 15 0 16 -10 12 -87z m-244 60 c0 -10 -4 -14 -8 -8
-4 6 -11 13 -16 18 -5 4 -2 7 7 7 10 0 17 -8 17 -17z m92 -38 c10 -13 8 -141
-2 -180 -4 -16 -8 -24 -9 -17 0 7 -5 10 -11 7 -15 -9 -12 -25 4 -25 8 0 16 -6
18 -12 7 -22 -4 -128 -13 -128 -5 0 -9 6 -9 14 0 8 -9 21 -21 29 -19 14 -20
22 -15 89 3 40 8 95 12 121 4 31 2 53 -5 60 -6 6 -11 28 -11 49 l0 38 28 -17
c15 -10 30 -22 34 -28z m-175 8 c46 -21 64 -62 50 -114 -7 -28 -15 -39 -28
-39 -11 0 -19 7 -19 15 0 8 -5 15 -11 15 -5 0 -7 5 -4 10 3 6 -3 10 -13 10
-22 0 -46 23 -35 33 3 4 1 7 -5 7 -22 0 -32 36 -16 58 18 26 35 27 81 5z
m-107 -28 c0 -8 -4 -15 -10 -15 -5 0 -7 7 -4 15 4 8 8 15 10 15 2 0 4 -7 4
-15z m832 -100 c9 -17 18 -58 20 -93 l4 -62 -34 6 c-24 5 -37 2 -44 -7 -11
-15 -3 184 7 201 8 13 27 -6 47 -45z m85 -62 c-3 -10 -5 -2 -5 17 0 19 2 27 5
18 2 -10 2 -26 0 -35z m-727 12 c0 -8 -4 -15 -10 -15 -5 0 -7 7 -4 15 4 8 8
15 10 15 2 0 4 -7 4 -15z m183 -48 c6 -39 6 -38 -22 -30 -17 4 -20 8 -9 15 9
7 7 8 -9 5 -20 -5 -23 -1 -23 28 0 33 1 34 29 24 22 -8 30 -18 34 -42z m27 3
c0 -5 -2 -10 -4 -10 -3 0 -8 5 -11 10 -3 6 -1 10 4 10 6 0 11 -4 11 -10z
m-200 -51 c0 -12 -5 -19 -11 -17 -6 2 -10 7 -10 11 1 4 1 14 1 23 0 8 5 12 10
9 6 -3 10 -15 10 -26z m712 9 c-7 -7 -12 -8 -12 -2 0 6 3 14 7 17 3 4 9 5 12
2 2 -3 -1 -11 -7 -17z m-878 4 c6 -10 -21 -52 -33 -52 -4 0 -6 14 -3 30 4 28
24 40 36 22z m314 -45 c18 -28 33 -41 45 -39 9 2 17 -1 17 -7 0 -11 -32 -15
-79 -11 -14 1 -21 -2 -17 -9 4 -6 2 -11 -3 -11 -12 0 -15 78 -5 104 9 23 11
21 42 -27z m582 -35 c0 -15 -2 -15 -10 -2 -13 20 -13 33 0 25 6 -3 10 -14 10
-23z m-735 -56 c0 -49 -4 -71 -13 -74 -7 -2 -13 2 -11 9 4 30 -1 41 -16 35
-15 -5 -20 13 -16 54 1 11 -3 10 -14 -4 -8 -11 -15 -26 -15 -33 0 -7 -4 -13
-10 -13 -17 0 -11 62 7 82 12 13 28 18 52 16 l36 -3 0 -69z m490 47 c-17 -77
-18 -73 17 -62 47 13 68 11 68 -7 0 -8 5 -12 11 -9 6 4 8 13 5 20 -3 8 6 14
25 17 36 6 37 -4 3 -31 -31 -24 -50 -27 -57 -7 -4 11 -15 12 -49 6 -24 -5 -92
-18 -152 -30 -60 -11 -111 -18 -114 -16 -6 7 11 12 61 21 28 4 37 10 33 20 -7
19 61 76 110 91 22 6 40 12 42 13 1 1 0 -11 -3 -26z m116 9 c-14 -27 -32 -38
-66 -45 l-30 -6 28 12 c15 6 27 14 27 18 0 11 30 39 41 39 6 0 6 -7 0 -18z
m-556 -71 c-10 -27 -28 5 -20 36 l7 28 9 -24 c6 -14 7 -31 4 -40z m255 55 c0
-16 -22 -58 -27 -52 -12 12 -12 40 0 48 13 9 27 10 27 4z m-131 -45 c9 -6 11
-18 6 -39 -5 -26 -3 -31 17 -34 19 -3 15 -6 -19 -16 -23 -7 -45 -17 -48 -22
-14 -22 -36 20 -33 62 3 43 6 46 58 57 3 0 11 -3 19 -8z m-524 -67 c-14 -20
-25 -41 -25 -47 0 -6 -3 -8 -6 -5 -7 7 12 45 34 71 25 28 23 20 -3 -19z m795
12 c0 -2 -7 -9 -15 -16 -13 -11 -14 -10 -9 4 5 14 24 23 24 12z m-1114 -41
c20 -14 51 -26 68 -26 18 -1 24 -3 13 -6 -27 -7 -58 3 -96 32 -45 32 -33 33
15 0z m714 10 c0 -8 7 -15 16 -15 14 0 14 -2 0 -15 -20 -21 -23 -19 -28 15 -3
17 -1 30 4 30 4 0 8 -7 8 -15z m-500 -10 c0 -7 -57 -35 -72 -35 -7 0 3 8 22
19 37 20 50 24 50 16z m266 -23 c-10 -2 -22 0 -28 6 -6 6 0 7 19 4 21 -5 23
-7 9 -10z m391 -109 c-6 -98 -12 -124 -31 -153 -12 -19 -28 -45 -35 -58 -11
-21 -11 -22 15 -16 l27 7 -7 -124 c-6 -114 -5 -132 19 -224 46 -177 139 -499
188 -657 18 -57 32 -53 -148 -34 -104 11 -162 14 -370 20 l-40 1 3 -49 c1 -27
3 -50 5 -52 1 -1 134 -4 296 -8 162 -3 297 -8 299 -11 3 -3 2 -8 -1 -11 -8 -8
-227 -6 -447 2 -143 6 -154 6 -141 -10 11 -12 32 -16 100 -16 93 0 134 -7 125
-21 -8 -13 40 -29 105 -34 31 -3 110 -10 176 -17 l120 -11 52 -156 c29 -86 75
-221 103 -301 55 -155 160 -461 160 -466 0 -2 -28 -1 -62 1 -35 2 -108 6 -163
10 -55 3 -122 7 -150 10 -27 2 -104 7 -170 10 -66 3 -147 8 -180 10 -33 3
-161 11 -285 20 -352 24 -505 34 -645 45 -71 5 -231 17 -355 26 -124 9 -226
17 -227 18 -1 1 91 46 206 100 234 110 275 132 266 146 -4 6 -1 9 5 8 11 -3
118 253 178 427 17 50 61 167 97 260 37 94 76 195 87 225 20 57 110 282 130
325 6 13 15 22 19 19 16 -10 27 33 28 116 l1 85 -56 -145 c-30 -80 -72 -194
-94 -255 -57 -163 -166 -459 -202 -549 -21 -51 -38 -81 -50 -84 -13 -3 -15 -8
-9 -16 6 -8 -16 -76 -67 -205 -63 -157 -82 -195 -103 -206 -20 -11 -461 -55
-544 -55 -6 0 38 98 98 217 l110 218 101 -3 c93 -4 376 14 385 24 7 7 -2 11
-37 17 -21 4 -31 3 -27 -3 9 -14 -10 -12 -52 5 -42 18 -46 18 -37 4 7 -12 -19
-6 -71 16 -16 7 -43 16 -59 20 -15 3 -35 13 -44 22 -14 14 -14 17 2 29 18 12
17 14 -8 25 -14 7 -26 18 -26 25 0 6 -7 14 -15 17 -12 5 -11 14 7 57 23 55 31
62 98 78 25 6 68 21 95 33 l50 22 -30 13 c-16 7 -54 13 -82 14 -29 0 -53 2
-53 4 0 2 14 35 31 73 61 135 258 611 288 697 18 51 31 107 31 136 l0 48 180
1 c179 2 180 2 190 -21 l9 -23 0 23 c1 19 6 22 45 22 l44 0 -18 -57 c-10 -32
-28 -85 -39 -117 -16 -45 -21 -84 -21 -165 l0 -106 26 30 c14 17 58 66 98 110
84 91 156 185 206 265 18 30 39 60 45 65 6 6 31 39 54 73 24 35 72 102 107
149 66 87 77 110 47 98 -12 -4 -14 -3 -8 3 10 10 46 20 55 16 3 -1 2 -56 -3
-121z m71 99 c10 -7 8 -21 -9 -68 -31 -83 -36 -84 -35 -7 1 76 12 95 44 75z
m-674 -88 c-9 -43 -22 -117 -29 -164 -10 -67 -13 -76 -14 -40 -1 54 14 154 36
233 22 81 26 65 7 -29z m526 71 c-7 -9 -15 -13 -19 -10 -3 3 1 10 9 15 21 14
24 12 10 -5z m-205 -43 c-6 -6 -75 30 -75 38 0 5 18 -1 39 -13 22 -12 38 -23
36 -25z m103 -9 c-10 -2 -28 -2 -40 0 -13 2 -5 4 17 4 22 1 32 -1 23 -4z
m1249 -225 c-3 -7 -5 -2 -5 12 0 14 2 19 5 13 2 -7 2 -19 0 -25z m-617 -91 c0
-85 71 -295 281 -834 32 -83 59 -154 59 -156 0 -9 -409 -17 -483 -9 l-78 8 7
-30 c3 -17 4 -29 1 -26 -6 6 -16 38 -63 213 -13 49 -27 93 -30 99 -10 16 -86
290 -114 408 -4 19 -15 64 -24 100 -12 52 -13 83 -6 155 5 50 10 101 10 114 0
21 4 23 33 18 17 -3 113 -2 212 2 99 3 183 5 188 3 4 -2 7 -31 7 -65z m597 66
c-3 -5 -8 -104 -12 -222 -5 -167 -11 -231 -27 -285 -10 -39 -27 -98 -36 -132
-10 -33 -25 -73 -35 -87 -9 -14 -17 -36 -17 -47 0 -12 -5 -30 -11 -42 -11 -21
-3 -41 9 -21 14 22 36 -5 38 -46 1 -22 6 -46 10 -53 5 -7 7 -24 6 -38 -2 -20
-1 -22 7 -10 12 17 15 1 5 -24 -7 -18 -54 67 -54 99 0 11 -5 27 -10 35 -8 12
-10 11 -10 -7 0 -12 -4 -25 -10 -28 -5 -3 -10 -30 -10 -58 0 -79 -8 -99 -37
-95 -23 3 -35 29 -135 278 -61 151 -121 307 -133 345 -13 39 -44 131 -70 205
-40 116 -45 141 -40 185 l7 50 285 3 c156 1 282 -1 280 -5z m11 -717 c-13 -10
-15 -15 -6 -24 7 -7 8 -13 3 -13 -6 -1 -22 -3 -37 -4 -14 -2 -34 3 -45 10 -17
13 -17 14 0 15 9 0 17 7 17 15 0 11 11 15 43 15 37 -1 40 -2 25 -14z m2 -51
c0 -2 -5 -16 -10 -30 -9 -24 -11 -25 -26 -11 -8 9 -12 22 -9 28 4 7 -1 4 -9
-6 -13 -17 -16 -17 -16 -4 0 9 5 18 10 20 14 4 60 7 60 3z m-40 -245 c0 -11
-4 -20 -9 -20 -7 0 -8 17 -2 38 4 10 11 -2 11 -18z m-2490 -115 c-8 -21 -14
-25 -22 -17 -9 9 -7 17 7 32 23 26 28 20 15 -15z m1928 -30 c4 -3 -37 -5 -91
-4 -86 2 -119 -2 -106 -15 2 -2 60 -6 129 -9 69 -3 150 -10 181 -16 61 -12
134 -39 126 -47 -3 -3 -22 2 -42 10 -47 20 -55 20 -30 -1 18 -14 18 -15 2 -9
-10 3 -30 6 -43 6 -28 0 -32 16 -6 23 16 4 16 5 -1 6 -10 0 -20 -6 -23 -14 -5
-12 -23 -15 -80 -14 -41 1 -77 6 -81 12 -4 6 4 7 23 3 28 -7 28 -7 10 13 -19
21 -46 28 -46 14 0 -5 -13 -8 -30 -8 -16 0 -30 3 -30 8 0 4 -4 7 -10 7 -14 0
-12 -27 3 -34 6 -2 1 -3 -13 -2 -24 3 -40 23 -54 71 -6 20 -3 20 100 13 59 -4
109 -10 112 -13z m-1953 5 c3 -5 -3 -26 -14 -47 -18 -35 -20 -36 -21 -12 0 14
6 31 13 38 10 11 10 13 0 7 -14 -7 -18 6 -6 17 9 10 21 9 28 -3z m2491 -29 c5
-5 23 -12 39 -14 69 -12 94 -20 89 -28 -3 -5 2 -12 10 -15 9 -3 13 -10 10 -16
-3 -5 -12 -7 -20 -4 -8 3 -14 -1 -14 -9 0 -8 -9 -15 -21 -15 -11 0 -17 5 -14
10 4 6 11 7 17 4 7 -4 8 -2 4 4 -5 9 -13 9 -27 2 -10 -6 -19 -7 -19 -3 0 4 -5
1 -10 -7 -6 -10 -10 -11 -10 -2 0 6 -9 12 -21 12 -11 0 -17 5 -14 10 3 6 1 10
-5 10 -7 0 -10 6 -7 13 2 6 15 11 28 9 22 -3 21 -1 -10 22 -19 14 -30 26 -25
26 6 0 14 -4 20 -9z m-766 -10 c0 -6 -8 -11 -17 -11 -15 0 -16 -2 -3 -10 11
-7 2 -10 -32 -10 -32 0 -48 4 -49 13 0 7 -2 8 -5 1 -3 -7 -24 -8 -65 -2 -33 4
-63 7 -67 7 -21 -3 -43 2 -38 9 8 13 276 15 276 3z m140 -31 c12 -8 9 -10 -13
-10 -16 0 -26 4 -22 10 8 12 16 12 35 0z m-1810 -24 c0 -2 -9 -2 -20 1 -11 3
-20 9 -20 15 0 5 9 4 20 -2 11 -6 20 -12 20 -14z m-1730 -556 c33 -11 -83 -11
-125 0 -23 6 -15 8 35 8 36 0 76 -4 90 -8z m1880 -20 c0 -5 -7 -6 -17 -3 -9 4
-14 2 -10 -3 6 -11 -265 -146 -299 -148 -12 0 -20 -4 -18 -7 6 -11 -43 -28
-65 -22 -14 3 -21 1 -21 -9 0 -8 -41 -31 -102 -56 -66 -27 -94 -35 -78 -22 20
16 21 20 8 20 -11 0 -15 5 -12 15 5 12 20 15 60 14 30 -1 57 1 61 4 3 4 -20 7
-51 7 l-58 0 50 93 50 92 58 3 c32 2 119 10 194 17 170 16 250 18 250 5z
m-1253 -66 c-3 -3 -12 -4 -19 -1 -8 3 -5 6 6 6 11 1 17 -2 13 -5z m69 -13 c5
-5 27 -11 49 -14 27 -2 19 -4 -27 -5 -80 -2 -101 13 -37 27 3 0 9 -3 15 -8z
m428 -89 c6 -10 -77 -35 -101 -30 -12 3 -3 9 27 20 52 19 67 21 74 10z m-134
-57 c-33 -19 -50 -19 -50 0 0 11 11 15 38 15 l37 -1 -25 -14z m233 -33 c-3
-21 -10 -41 -15 -47 -8 -9 -226 -9 -274 0 -10 2 -32 4 -49 5 -16 1 -23 4 -15
7 8 3 29 11 45 18 123 52 171 63 262 57 l51 -4 -5 -36z m732 3 c413 -31 464
-35 669 -50 221 -16 574 -38 911 -56 110 -6 204 -14 208 -19 5 -4 40 -94 78
-201 38 -106 74 -198 79 -203 16 -16 12 -22 -29 -41 -43 -19 -3 -22 -491 35
-343 39 -640 76 -815 101 -77 11 -165 22 -195 25 -30 2 -149 18 -265 33 -115
16 -235 32 -265 35 -30 3 -64 8 -75 10 -34 6 -174 24 -255 31 -30 3 -66 7 -80
10 -76 15 -568 66 -773 81 -88 6 -167 21 -120 23 12 1 26 7 30 15 4 8 40 26
78 41 39 15 95 37 125 49 51 21 63 22 165 14 61 -5 151 -8 200 -6 83 3 98 7
190 51 l100 47 165 -5 c91 -3 255 -12 365 -20z m-1186 -58 c-2 -2 -40 -18 -84
-36 -84 -35 -145 -49 -145 -34 0 7 130 54 210 76 15 4 27 0 19 -6z m-119 -1
c0 -2 -7 -6 -15 -10 -8 -3 -15 -1 -15 4 0 6 7 10 15 10 8 0 15 -2 15 -4z
m3830 -120 c0 -2 -7 -6 -15 -10 -8 -3 -15 -1 -15 4 0 6 7 10 15 10 8 0 15 -2
15 -4z m-4326 -24 c2 -4 -13 -8 -34 -7 -21 0 -36 3 -33 8 6 10 61 9 67 -1z
m239 -9 c-13 -2 -35 -2 -50 0 -16 2 -5 4 22 4 28 0 40 -2 28 -4z m-155 -20
c-10 -2 -26 -2 -35 0 -10 3 -2 5 17 5 19 0 27 -2 18 -5z m4126 -28 c-28 -22
-40 -18 -13 4 13 11 26 17 28 15 3 -2 -4 -11 -15 -19z m-144 -105 c0 -5 -4
-10 -10 -10 -5 0 -10 5 -10 10 0 6 5 10 10 10 6 0 10 -4 10 -10z m-170 -114
c0 -2 -7 -7 -16 -10 -8 -3 -12 -2 -9 4 6 10 25 14 25 6z"/>
<path d="M4711 8694 c0 -11 3 -14 6 -6 3 7 2 16 -1 19 -3 4 -6 -2 -5 -13z"/>
<path d="M4537 8650 c3 -11 12 -20 19 -20 17 0 18 12 2 28 -18 18 -27 15 -21
-8z"/>
<path d="M4693 8639 c-17 -48 -16 -58 3 -31 8 12 14 32 12 44 -2 18 -5 15 -15
-13z"/>
<path d="M5030 7841 c0 -6 4 -13 10 -16 6 -3 7 1 4 9 -7 18 -14 21 -14 7z"/>
<path d="M5039 7719 c0 -22 -1 -23 -9 -4 -6 15 -9 6 -9 -32 -1 -29 3 -53 8
-53 9 0 24 101 16 109 -3 2 -5 -7 -6 -20z"/>
<path d="M5001 7475 c-6 -80 -18 -193 -26 -252 -32 -253 -39 -408 -26 -541 6
-70 9 -142 5 -159 -4 -23 -3 -33 6 -33 7 0 10 7 6 16 -6 15 -4 15 10 3 16 -13
16 -12 6 7 -37 69 -20 477 38 894 18 131 20 180 9 180 -5 0 -8 4 -4 9 3 5 2
12 -3 15 -5 3 -14 -60 -21 -139z"/>
<path d="M3831 4964 c0 -11 3 -14 6 -6 3 7 2 16 -1 19 -3 4 -6 -2 -5 -13z"/>
<path d="M3672 5050 c0 -14 2 -19 5 -12 2 6 2 18 0 25 -3 6 -5 1 -5 -13z"/>
<path d="M3666 4993 c-4 -9 -1 -23 7 -31 12 -12 15 -11 20 7 7 26 -18 49 -27
24z"/>
<path d="M3653 4915 c0 -27 2 -38 4 -22 2 15 2 37 0 50 -2 12 -4 0 -4 -28z"/>
<path d="M3730 4949 c0 -5 5 -7 10 -4 6 3 10 8 10 11 0 2 -4 4 -10 4 -5 0 -10
-5 -10 -11z"/>
<path d="M3746 3831 c-9 -14 4 -41 19 -41 7 0 15 -6 18 -14 9 -23 44 -39 53
-24 4 7 4 10 -1 6 -10 -10 -36 17 -32 34 2 7 2 10 0 6 -9 -15 -21 -7 -27 17
-6 25 -20 33 -30 16z"/>
<path d="M3914 3760 c3 -14 6 -30 6 -37 0 -14 28 -43 42 -43 6 0 5 7 -3 16 -8
10 -22 33 -32 53 -13 26 -17 29 -13 11z"/>
<path d="M3578 3583 c7 -3 16 -2 19 1 4 3 -2 6 -13 5 -11 0 -14 -3 -6 -6z"/>
<path d="M2992 2850 c0 -14 2 -19 5 -12 2 6 2 18 0 25 -3 6 -5 1 -5 -13z"/>
<path d="M2631 2169 c-42 -42 -121 -153 -121 -170 0 -8 16 3 35 24 20 20 39
37 44 37 5 0 25 32 45 70 21 39 35 70 32 70 -2 0 -18 -14 -35 -31z"/>
<path d="M2706 2154 c-8 -22 1 -31 16 -16 9 9 9 15 1 23 -7 7 -12 5 -17 -7z"/>
<path d="M2680 2110 c0 -5 5 -10 10 -10 6 0 10 5 10 10 0 6 -4 10 -10 10 -5 0
-10 -4 -10 -10z"/>
<path d="M2545 1985 c-16 -14 -25 -25 -20 -25 13 0 26 10 44 33 18 23 12 21
-24 -8z"/>
<path d="M2385 1871 c-7 -12 25 -30 43 -24 10 4 10 8 1 19 -13 16 -35 18 -44
5z"/>
<path d="M3180 1680 c0 -5 5 -10 10 -10 6 0 10 5 10 10 0 6 -4 10 -10 10 -5 0
-10 -4 -10 -10z"/>
<path d="M2810 1670 c-11 -7 -7 -10 18 -10 17 0 32 -3 32 -7 0 -5 30 -9 68 -9
37 -1 58 1 47 3 -11 3 -29 12 -40 19 -22 16 -103 18 -125 4z"/>
<path d="M2655 1590 c3 -5 8 -10 11 -10 2 0 4 5 4 10 0 6 -5 10 -11 10 -5 0
-7 -4 -4 -10z"/>
<path d="M4078 1738 c5 -5 16 -8 23 -6 8 3 3 7 -10 11 -17 4 -21 3 -13 -5z"/>
<path d="M4160 1720 c0 -5 5 -10 11 -10 5 0 7 5 4 10 -3 6 -8 10 -11 10 -2 0
-4 -4 -4 -10z"/>
<path d="M3810 1740 c-13 -8 -12 -10 3 -10 9 0 17 5 17 10 0 12 -1 12 -20 0z"/>
<path d="M3905 670 c-3 -5 1 -10 9 -10 9 0 16 5 16 10 0 6 -4 10 -9 10 -6 0
-13 -4 -16 -10z"/>
<path d="M5577 4483 c-8 -13 8 -261 17 -270 7 -7 -2 267 -9 275 -2 2 -5 -1 -8
-5z"/>
<path d="M5572 4050 c0 -19 2 -27 5 -17 2 9 2 25 0 35 -3 9 -5 1 -5 -18z"/>
<path d="M5604 3923 c15 -131 63 -234 148 -312 204 -191 243 -243 290 -382 12
-35 23 -58 26 -51 7 21 -36 129 -80 202 -47 78 -111 149 -188 206 -98 72 -167
200 -178 332 -2 34 -9 62 -15 62 -6 0 -7 -22 -3 -57z"/>
<path d="M5580 3830 c-2 -72 77 -232 119 -243 21 -5 29 7 12 18 -15 9 -71 95
-71 109 0 6 -5 17 -10 22 -6 6 -19 33 -30 60 -10 27 -19 42 -20 34z"/>
<path d="M4774 3695 c8 -8 17 -15 20 -15 3 0 3 7 0 15 -4 8 -13 15 -21 15 -12
0 -12 -2 1 -15z"/>
<path d="M4760 3560 c0 -22 3 -40 8 -40 4 0 6 18 4 40 -2 22 -6 40 -8 40 -2 0
-4 -18 -4 -40z"/>
<path d="M5490 3574 c-43 -15 -146 -86 -152 -105 -2 -5 -2 -30 0 -54 3 -37 7
-45 24 -45 19 0 20 5 15 63 -3 36 -1 54 3 42 5 -11 9 -39 9 -62 1 -36 4 -43
21 -43 14 0 20 7 21 23 l0 22 9 -22 c14 -35 30 -27 32 15 1 36 1 36 5 5 3 -24
9 -33 22 -33 13 0 17 6 15 23 -9 65 -11 148 -4 141 5 -5 10 -43 12 -84 2 -61
6 -75 20 -78 12 -2 18 5 21 30 l4 33 1 -32 c2 -26 6 -33 22 -33 17 0 20 7 22
43 1 42 1 42 5 6 4 -33 8 -37 36 -42 45 -7 50 -1 44 52 -4 30 -3 39 3 26 5
-11 9 -32 9 -47 1 -40 29 -36 34 5 l4 32 1 -33 c2 -28 6 -33 25 -32 41 4 53
-3 17 -9 -39 -7 -57 -41 -21 -41 11 0 22 8 24 18 4 15 5 15 6 0 1 -11 12 -18
34 -21 l32 -4 -32 -1 c-26 -2 -33 -6 -33 -22 0 -25 25 -26 39 -2 10 16 10 16
11 -2 0 -13 5 -17 20 -13 11 3 20 1 20 -4 0 -5 -9 -9 -20 -9 -13 0 -20 -7 -20
-20 0 -22 35 -28 43 -7 3 6 6 -5 6 -25 1 -26 6 -38 19 -41 16 -4 16 -5 0 -6
-11 -1 -18 -9 -18 -21 0 -16 7 -20 33 -21 l32 -1 -30 -8 c-16 -4 -51 -8 -77
-9 -35 -1 -48 -5 -51 -18 -4 -17 -5 -17 -6 0 -2 25 -41 23 -41 -3 0 -17 7 -20
44 -20 34 0 46 4 49 18 4 16 5 16 6 0 0 -10 7 -18 15 -18 8 0 17 8 19 18 4 16
5 16 6 -1 1 -14 8 -16 36 -13 19 3 35 0 35 -5 0 -5 -25 -9 -55 -9 -49 0 -55
-2 -55 -21 0 -18 5 -20 55 -18 30 1 58 0 62 -4 3 -4 -11 -8 -33 -9 -21 0 -43
-2 -49 -3 -5 -2 -25 -3 -42 -4 -21 -1 -33 -6 -33 -15 0 -21 30 -29 31 -8 0 10
3 12 6 5 3 -8 25 -13 59 -13 34 0 53 4 49 10 -3 6 -1 10 4 10 6 0 11 -7 11
-15 0 -8 9 -16 20 -16 11 -1 28 -2 37 -3 9 0 18 5 21 12 2 6 -2 12 -8 12 -7 0
-9 8 -5 20 4 12 1 28 -6 36 -10 13 -10 17 2 25 12 8 11 12 -6 25 -17 13 -18
16 -5 24 13 8 12 11 -5 24 -16 12 -17 16 -6 30 11 13 11 17 -3 22 -11 4 -15
13 -11 25 4 13 1 21 -10 25 -10 4 -15 14 -12 26 3 11 0 22 -9 25 -8 3 -14 15
-14 28 0 13 -7 25 -15 29 -8 3 -15 13 -15 23 0 10 -9 24 -20 31 -11 7 -20 18
-20 26 0 8 -11 21 -25 30 -14 9 -25 23 -25 30 0 8 -11 17 -25 20 -14 4 -25 11
-25 16 0 6 -5 10 -12 10 -6 0 -19 6 -27 13 -44 37 -182 48 -261 21z m67 -91
c-2 -16 -4 -5 -4 22 0 28 2 40 4 28 2 -13 2 -35 0 -50z m50 15 c-2 -13 -4 -5
-4 17 -1 22 1 32 4 23 2 -10 2 -28 0 -40z m-140 -10 c-2 -13 -4 -5 -4 17 -1
22 1 32 4 23 2 -10 2 -28 0 -40z m190 -55 c-2 -21 -4 -6 -4 32 0 39 2 55 4 38
2 -18 2 -50 0 -70z m-230 10 c-2 -16 -4 -3 -4 27 0 30 2 43 4 28 2 -16 2 -40
0 -55z"/>
<path d="M4707 3411 c-4 -35 -5 -66 -3 -68 6 -7 19 103 14 119 -3 7 -8 -16
-11 -51z"/>
<path d="M5306 3428 c-22 -32 -20 -58 4 -58 17 0 20 7 20 40 0 46 -3 48 -24
18z"/>
<path d="M5484 3356 c-7 -19 3 -36 22 -36 10 0 14 8 12 22 -4 26 -26 36 -34
14z"/>
<path d="M5532 3348 c5 -32 28 -35 28 -4 0 17 -5 26 -16 26 -10 0 -14 -7 -12
-22z"/>
<path d="M5570 3350 c0 -25 37 -27 43 -2 4 16 5 16 6 0 1 -11 9 -18 20 -18 11
0 22 8 24 18 4 16 5 16 6 0 1 -25 31 -23 31 2 0 18 -7 20 -65 20 -58 0 -65 -2
-65 -20z"/>
<path d="M5710 3349 c0 -24 23 -21 28 4 2 10 -3 17 -12 17 -10 0 -16 -9 -16
-21z"/>
<path d="M5291 3343 c-6 -10 -11 -12 -11 -5 0 18 -18 15 -29 -7 -10 -17 -6
-19 40 -19 40 0 49 3 45 15 -3 8 -6 19 -6 24 0 16 -29 10 -39 -8z"/>
<path d="M5346 3338 c8 -28 3 -26 47 -20 28 3 37 9 37 23 0 24 -37 26 -43 2
-4 -17 -5 -17 -6 0 -1 10 -9 17 -22 17 -16 0 -19 -4 -13 -22z"/>
<path d="M5440 3340 c0 -11 7 -20 15 -20 8 0 15 9 15 20 0 11 -7 20 -15 20 -8
0 -15 -9 -15 -20z"/>
<path d="M5768 3323 c-25 -6 -23 -33 2 -33 13 0 20 7 20 20 0 11 -1 19 -2 19
-2 -1 -11 -3 -20 -6z"/>
<path d="M5568 3313 c-25 -3 -38 -9 -38 -19 0 -17 36 -19 43 -1 4 10 6 10 6 0
2 -22 31 -14 31 7 0 11 -1 19 -2 18 -2 -1 -20 -3 -40 -5z"/>
<path d="M5627 3313 c-14 -13 -6 -33 13 -33 13 0 20 7 20 20 0 19 -20 27 -33
13z"/>
<path d="M5670 3300 c0 -13 5 -18 15 -14 8 4 15 12 15 20 0 8 -7 14 -15 14 -8
0 -15 -9 -15 -20z"/>
<path d="M5710 3305 c0 -8 7 -15 15 -15 8 0 15 7 15 15 0 8 -7 15 -15 15 -8 0
-15 -7 -15 -15z"/>
<path d="M5378 3303 c-32 -5 -38 -33 -7 -33 11 0 17 5 14 10 -3 6 -1 10 4 10
6 0 11 -4 11 -10 0 -5 7 -10 15 -10 8 0 15 9 15 20 0 11 -6 19 -12 19 -7 -1
-25 -4 -40 -6z"/>
<path d="M5447 3303 c-4 -3 -7 -12 -7 -20 0 -19 38 -16 43 5 4 16 5 16 6 0 1
-25 31 -23 31 2 0 16 -7 20 -33 20 -19 0 -37 -3 -40 -7z"/>
<path d="M5227 3280 c-4 -17 0 -20 28 -20 24 0 35 5 38 18 4 16 5 15 6 -1 1
-24 34 -19 39 6 3 14 -5 17 -51 17 -46 0 -55 -3 -60 -20z"/>
<path d="M5719 3269 c-11 -6 -1 -39 12 -39 4 0 13 8 18 18 6 9 11 11 11 5 0
-21 30 -14 30 7 0 15 -6 19 -31 17 -17 -1 -35 -5 -40 -8z"/>
<path d="M5800 3260 c0 -13 7 -20 20 -20 13 0 20 7 20 20 0 13 -7 20 -20 20
-13 0 -20 -7 -20 -20z"/>
<path d="M5542 3263 c-6 -3 -10 -9 -6 -14 3 -5 0 -9 -5 -9 -6 0 -11 5 -11 10
0 6 -7 10 -15 10 -8 0 -15 -9 -15 -20 0 -16 6 -19 36 -18 21 1 38 7 41 15 7
17 -7 32 -25 26z"/>
<path d="M5580 3251 c0 -18 6 -21 40 -21 33 0 40 3 40 20 0 14 -7 20 -21 20
-11 0 -18 -4 -14 -9 3 -5 1 -13 -5 -16 -6 -4 -9 -1 -8 6 2 7 -5 15 -14 17 -13
2 -18 -3 -18 -17z"/>
<path d="M5670 3250 c0 -11 7 -20 15 -20 8 0 15 9 15 20 0 11 -7 20 -15 20 -8
0 -15 -9 -15 -20z"/>
<path d="M5350 3236 c0 -20 5 -26 21 -26 15 0 20 5 17 22 -5 34 -38 37 -38 4z"/>
<path d="M5400 3241 c0 -27 15 -34 34 -15 9 8 16 11 16 5 0 -6 7 -11 15 -11 8
0 15 9 15 20 0 17 -7 20 -40 20 -33 0 -40 -3 -40 -19z"/>
<path d="M5216 3234 c-18 -17 -21 -34 -7 -34 5 0 12 8 14 18 4 15 5 15 6 -2 1
-12 6 -16 17 -12 9 3 22 6 30 6 8 0 14 9 14 20 0 15 -7 20 -29 20 -16 0 -37
-7 -45 -16z"/>
<path d="M5300 3230 c0 -13 7 -20 20 -20 13 0 20 7 20 20 0 13 -7 20 -20 20
-13 0 -20 -7 -20 -20z"/>
<path d="M5743 3223 c-26 -5 -31 -28 -8 -37 10 -3 15 1 16 12 0 10 3 12 6 5 2
-8 22 -13 44 -13 32 0 39 3 39 20 0 22 -25 28 -33 8 -4 -10 -6 -10 -6 0 -1 12
-15 13 -58 5z"/>
<path d="M5850 3210 c0 -13 7 -20 20 -20 13 0 20 7 20 20 0 13 -7 20 -20 20
-13 0 -20 -7 -20 -20z"/>
<path d="M5553 3213 c-18 -7 -16 -33 2 -33 8 0 15 9 15 20 0 11 -1 20 -2 19
-2 0 -9 -3 -15 -6z"/>
<path d="M5580 3199 c0 -14 8 -18 40 -17 31 0 40 4 40 18 0 14 -9 17 -40 17
-32 0 -40 -3 -40 -18z"/>
<path d="M5672 3203 c2 -10 10 -18 18 -18 8 0 16 8 18 18 2 12 -3 17 -18 17
-15 0 -20 -5 -18 -17z"/>
<path d="M5413 3203 c-21 -8 -15 -33 7 -33 13 0 20 7 20 20 0 20 -5 23 -27 13z"/>
<path d="M5450 3190 c0 -11 7 -20 15 -20 8 0 15 9 15 20 0 11 -7 20 -15 20 -8
0 -15 -9 -15 -20z"/>
<path d="M5490 3195 c0 -8 9 -15 20 -15 11 0 20 7 20 15 0 8 -9 15 -20 15 -11
0 -20 -7 -20 -15z"/>
<path d="M5258 3192 c-19 -2 -28 -9 -28 -21 0 -16 7 -17 53 -13 28 3 53 8 55
12 1 4 14 5 27 2 18 -3 25 0 25 11 0 23 -90 22 -91 -1 0 -14 -1 -15 -7 -2 -4
9 -17 14 -34 12z"/>
<path d="M5196 3174 c-9 -22 -8 -24 9 -24 8 0 15 9 15 20 0 24 -15 27 -24 4z"/>
<path d="M5788 3172 c-20 -2 -28 -9 -28 -23 0 -24 37 -26 43 -1 4 16 5 16 6 0
1 -18 31 -26 31 -9 0 4 11 6 25 3 20 -3 25 0 25 16 0 18 -6 21 -37 19 -21 0
-50 -3 -65 -5z"/>
<path d="M5553 3163 c-7 -2 -13 -13 -13 -23 0 -15 8 -19 40 -18 34 0 40 4 41
22 0 14 2 16 6 6 9 -22 20 -27 53 -22 16 2 31 12 33 21 4 14 5 14 6 -1 1 -25
31 -23 31 2 0 19 -6 20 -92 19 -51 0 -99 -3 -105 -6z"/>
<path d="M5367 3152 c-8 -2 -18 -11 -20 -20 -4 -15 -5 -15 -6 1 -2 27 -31 21
-31 -7 0 -21 5 -23 40 -23 34 0 40 3 41 21 1 17 2 18 6 3 4 -15 14 -17 69 -15
59 3 64 5 64 26 0 15 -6 22 -20 22 -11 0 -20 -6 -20 -12 0 -10 -2 -10 -9 0 -7
12 -63 14 -114 4z m80 -24 c-3 -8 -6 -5 -6 6 -1 11 2 17 5 13 3 -3 4 -12 1
-19z"/>
<path d="M5248 3143 c-10 -2 -18 -13 -18 -24 0 -15 7 -19 35 -19 31 0 35 3 35
25 0 25 -11 29 -52 18z"/>
<path d="M5187 3133 c-14 -13 -6 -33 13 -33 13 0 20 7 20 20 0 19 -20 27 -33
13z"/>
<path d="M4703 3080 c0 -25 2 -35 4 -22 2 12 2 32 0 45 -2 12 -4 2 -4 -23z"/>
<path d="M5650 3113 c-8 -3 -18 -11 -22 -17 -5 -8 -8 -7 -8 2 0 6 -9 12 -19
12 -14 0 -18 -5 -14 -20 4 -16 14 -20 44 -20 35 0 39 3 39 25 0 14 -1 25 -2
24 -2 0 -10 -3 -18 -6z"/>
<path d="M5680 3095 c0 -20 5 -23 35 -22 29 1 35 5 35 23 0 18 -6 22 -35 22
-30 0 -35 -3 -35 -23z"/>
<path d="M5549 3106 c-5 -5 -144 -14 -272 -19 -63 -2 -91 -7 -97 -17 -15 -24
1 -29 62 -23 41 4 58 10 61 22 4 14 5 14 6 -1 1 -16 10 -17 89 -11 48 3 90 11
94 17 6 8 8 7 8 -1 0 -20 30 -15 31 5 0 10 3 12 6 5 7 -20 45 -16 41 4 -3 16
-20 28 -29 19z"/>
<path d="M5773 3063 c-7 -3 -13 -14 -13 -25 0 -14 6 -19 23 -16 12 2 21 9 20
16 -2 6 2 12 7 12 6 0 10 -7 10 -16 0 -23 24 -11 28 14 3 18 -1 21 -30 20 -18
-1 -39 -3 -45 -5z"/>
<path d="M5538 3052 c-32 -3 -38 -7 -38 -27 0 -22 3 -23 38 -18 45 7 44 7 40
30 -2 14 -11 17 -40 15z"/>
<path d="M5590 3035 c0 -33 37 -35 43 -2 l4 22 2 -22 c0 -13 8 -23 16 -23 9 0
15 10 16 23 1 16 2 18 6 5 5 -21 39 -24 46 -5 4 10 6 10 6 0 2 -21 21 -14 21
7 0 18 -7 20 -80 20 -79 0 -80 0 -80 -25z"/>
<path d="M5363 3043 c-49 -4 -53 -6 -53 -29 0 -33 39 -35 41 -1 1 16 2 18 6 5
3 -14 15 -18 49 -18 40 0 44 2 44 25 0 18 -5 24 -17 23 -10 -1 -42 -3 -70 -5z"/>
<path d="M5460 3025 c0 -16 6 -25 15 -25 9 0 15 9 15 25 0 16 -6 25 -15 25 -9
0 -15 -9 -15 -25z"/>
<path d="M5208 3033 c-30 -3 -38 -9 -38 -24 0 -15 7 -19 31 -19 24 0 30 4 25
15 -3 8 -1 15 4 15 6 0 10 -7 10 -15 0 -10 10 -15 30 -15 25 0 30 4 30 25 0
27 -2 27 -92 18z"/>
<path d="M5623 3003 c-65 -3 -73 -6 -73 -23 0 -22 25 -27 34 -7 5 10 7 10 12
0 9 -19 34 -16 34 5 1 16 1 16 11 0 10 -19 43 -13 32 6 -3 6 -1 6 8 -1 20 -19
39 -16 39 7 0 11 -6 19 -12 18 -7 -1 -46 -4 -85 -5z"/>
<path d="M5730 2990 c0 -11 7 -20 15 -20 8 0 15 6 15 13 0 8 3 8 9 -2 11 -17
41 -7 41 14 0 11 -11 15 -40 15 -33 0 -40 -3 -40 -20z"/>
<path d="M5530 2997 c-3 -3 -38 -7 -78 -8 -81 -4 -104 -11 -85 -30 6 -6 17 -8
25 -3 7 5 32 7 55 7 24 -1 43 2 43 8 0 5 9 4 20 -3 22 -14 33 -7 28 17 -1 9
-5 14 -8 12z"/>
<path d="M5177 2974 c-4 -4 -4 -10 -2 -14 6 -10 55 0 55 11 0 10 -43 12 -53 3z"/>
<path d="M5240 2973 c1 -18 18 -35 24 -24 4 6 11 9 16 6 5 -3 12 -1 15 5 5 8
11 8 20 0 15 -12 35 -6 35 11 0 5 -25 9 -55 9 -30 0 -55 -3 -55 -7z"/>
<path d="M6035 2929 c-10 -15 3 -25 16 -12 7 7 7 13 1 17 -6 3 -14 1 -17 -5z"/>
<path d="M6030 2875 c0 -8 5 -15 10 -15 6 0 10 7 10 15 0 8 -4 15 -10 15 -5 0
-10 -7 -10 -15z"/>
<path d="M6025 2830 c-4 -6 -3 -16 3 -22 6 -6 12 -6 17 2 4 6 3 16 -3 22 -6 6
-12 6 -17 -2z"/>
<path d="M6016 2771 c-4 -7 -5 -15 -2 -18 9 -9 19 4 14 18 -4 11 -6 11 -12 0z"/>
<path d="M225 2740 c-17 -7 -17 -9 -2 -9 9 -1 17 -5 17 -11 0 -5 7 -10 15 -10
8 0 15 5 15 10 0 6 -7 10 -16 10 -8 0 -12 5 -9 10 7 11 7 11 -20 0z"/>
<path d="M152 2718 c5 -15 28 -23 28 -10 0 5 -7 13 -16 16 -10 4 -14 1 -12 -6z"/>
<path d="M5993 2715 c-8 -9 -9 -16 -3 -20 14 -8 30 3 30 21 0 18 -11 17 -27
-1z"/>
<path d="M1170 2680 c0 -5 7 -10 15 -10 8 0 15 5 15 10 0 6 -7 10 -15 10 -8 0
-15 -4 -15 -10z"/>
<path d="M1085 2670 c3 -5 11 -10 16 -10 6 0 7 5 4 10 -3 6 -11 10 -16 10 -6
0 -7 -4 -4 -10z"/>
<path d="M5981 2666 c-8 -10 -9 -16 -1 -21 5 -3 13 1 16 10 9 22 -1 29 -15 11z"/>
<path d="M5955 2609 c-4 -6 -5 -13 -2 -16 7 -7 27 6 27 18 0 12 -17 12 -25 -2z"/>
<path d="M5920 2541 c-7 -15 -7 -21 0 -21 12 0 25 28 17 36 -3 3 -10 -4 -17
-15z"/>
<path d="M5825 2440 c-3 -5 -1 -10 4 -10 6 0 11 5 11 10 0 6 -2 10 -4 10 -3 0
-8 -4 -11 -10z"/>
<path d="M5530 2297 c11 -9 80 -17 80 -9 0 4 -19 9 -42 11 -23 1 -40 0 -38 -2z"/>
<path d="M4810 2084 c0 -8 5 -12 10 -9 6 3 10 10 10 16 0 5 -4 9 -10 9 -5 0
-10 -7 -10 -16z"/>
<path d="M4855 1954 c-16 -12 -17 -14 -2 -14 9 0 17 5 17 11 0 8 4 8 13 2 15
-12 47 -24 47 -18 0 2 -12 11 -28 19 -23 12 -30 12 -47 0z"/>
<path d="M4690 1799 c0 -5 5 -7 10 -4 6 4 18 1 26 -6 12 -10 13 -9 8 5 -7 18
-44 22 -44 5z"/>
<path d="M5073 1719 c4 -13 7 -27 7 -31 0 -8 56 -2 93 8 26 8 12 21 -30 28
-21 4 -47 10 -57 13 -16 4 -18 1 -13 -18z"/>
<path d="M4390 1380 c0 -5 5 -10 10 -10 6 0 10 5 10 10 0 6 -4 10 -10 10 -5 0
-10 -4 -10 -10z"/>
<path d="M7128 1383 c7 -3 16 -2 19 1 4 3 -2 6 -13 5 -11 0 -14 -3 -6 -6z"/>
<path d="M6685 1293 c4 -9 -2 -13 -17 -13 -21 -1 -21 -2 -5 -11 10 -6 24 -9
33 -7 13 3 13 5 -1 23 -9 11 -14 14 -10 8z"/>
<path d="M6810 1260 c0 -4 9 -10 20 -13 11 -3 20 -2 20 3 0 4 -9 10 -20 13
-11 3 -20 2 -20 -3z"/>
<path d="M6901 1261 c-9 -6 -5 -8 13 -8 14 0 26 3 26 8 0 11 -21 11 -39 0z"/>
<path d="M320 1229 c0 -5 5 -7 10 -4 6 3 10 8 10 11 0 2 -4 4 -10 4 -5 0 -10
-5 -10 -11z"/>
<path d="M498 1223 c12 -2 30 -2 40 0 9 3 -1 5 -23 4 -22 0 -30 -2 -17 -4z"/>
<path d="M574 1206 c11 -9 38 -16 60 -16 23 -1 70 -8 106 -16 107 -25 158 -33
187 -29 15 2 35 4 43 5 10 1 9 4 -5 10 -11 5 -42 6 -68 3 -42 -5 -50 -3 -63
16 -16 23 -59 29 -67 9 -4 -9 -8 -10 -14 -2 -4 6 -37 14 -73 18 -36 3 -78 9
-95 12 -29 5 -29 5 -11 -10z"/>
<path d="M178 1193 c7 -3 16 -2 19 1 4 3 -2 6 -13 5 -11 0 -14 -3 -6 -6z"/>
<path d="M293 1193 c15 -2 37 -2 50 0 12 2 0 4 -28 4 -27 0 -38 -2 -22 -4z"/>
<path d="M488 1193 c7 -3 16 -2 19 1 4 3 -2 6 -13 5 -11 0 -14 -3 -6 -6z"/>
<path d="M868 1173 c7 -3 16 -2 19 1 4 3 -2 6 -13 5 -11 0 -14 -3 -6 -6z"/>
<path d="M748 1153 c6 -2 18 -2 25 0 6 3 1 5 -13 5 -14 0 -19 -2 -12 -5z"/>
<path d="M6150 1149 c0 -5 5 -7 10 -4 6 3 10 8 10 11 0 2 -4 4 -10 4 -5 0 -10
-5 -10 -11z"/>
<path d="M5335 860 c3 -5 8 -10 11 -10 2 0 4 5 4 10 0 6 -5 10 -11 10 -5 0 -7
-4 -4 -10z"/>
<path d="M6655 839 c-10 -15 3 -25 16 -12 7 7 7 13 1 17 -6 3 -14 1 -17 -5z"/>
<path d="M4330 751 c0 -6 10 -11 23 -12 12 0 54 -3 94 -7 39 -4 70 -5 68 -1
-3 3 -30 9 -62 12 -32 4 -73 9 -90 13 -22 4 -33 3 -33 -5z"/>
<path d="M6680 640 c0 -5 5 -10 11 -10 5 0 7 5 4 10 -3 6 -8 10 -11 10 -2 0
-4 -4 -4 -10z"/>
<path d="M6940 640 c8 -5 22 -9 30 -9 10 0 8 3 -5 9 -27 12 -43 12 -25 0z"/>
<path d="M7110 621 c0 -6 5 -13 10 -16 6 -3 10 1 10 9 0 9 -4 16 -10 16 -5 0
-10 -4 -10 -9z"/>
<path d="M5825 610 c3 -5 11 -10 16 -10 6 0 7 5 4 10 -3 6 -11 10 -16 10 -6 0
-7 -4 -4 -10z"/>
<path d="M6920 616 c0 -2 9 -6 20 -9 11 -3 20 -1 20 4 0 5 -9 9 -20 9 -11 0
-20 -2 -20 -4z"/>
<path d="M6970 612 c0 -17 21 -25 31 -13 5 6 6 9 3 6 -4 -3 -13 0 -21 6 -9 8
-13 8 -13 1z"/>
<path d="M7060 613 c8 -3 22 -11 30 -17 13 -10 13 -9 1 7 -7 9 -21 17 -30 16
-13 0 -14 -1 -1 -6z"/>
<path d="M6828 603 c6 -2 18 -2 25 0 6 3 1 5 -13 5 -14 0 -19 -2 -12 -5z"/>
<path d="M5730 592 c0 -5 7 -13 16 -16 10 -4 14 -1 12 6 -5 15 -28 23 -28 10z"/>
<path d="M5975 590 c3 -5 11 -10 16 -10 6 0 7 5 4 10 -3 6 -11 10 -16 10 -6 0
-7 -4 -4 -10z"/>
<path d="M5695 560 c-3 -6 1 -7 9 -4 18 7 21 14 7 14 -6 0 -13 -4 -16 -10z"/>
<path d="M7061 551 c-11 -7 -11 -10 0 -17 8 -4 14 -3 17 5 3 9 7 9 17 1 10 -9
19 -9 32 0 16 10 16 11 1 6 -10 -3 -20 -1 -23 4 -8 12 -26 12 -44 1z"/>
<path d="M7160 550 c0 -5 10 -10 23 -10 18 0 19 2 7 10 -19 13 -30 13 -30 0z"/>
<path d="M5586 537 c3 -10 9 -15 12 -12 3 3 0 11 -7 18 -10 9 -11 8 -5 -6z"/>
<path d="M6990 540 c0 -5 5 -10 11 -10 5 0 7 5 4 10 -3 6 -8 10 -11 10 -2 0
-4 -4 -4 -10z"/>
<path d="M5620 530 c0 -5 5 -10 11 -10 5 0 7 5 4 10 -3 6 -8 10 -11 10 -2 0
-4 -4 -4 -10z"/>
<path d="M6851 526 c-9 -10 -8 -15 3 -19 9 -4 18 -2 21 3 4 6 0 10 -7 10 -9 0
-9 3 2 10 8 5 10 10 4 10 -6 0 -17 -6 -23 -14z"/>
<path d="M5875 520 c28 -12 37 -12 30 0 -3 6 -16 10 -28 9 -21 0 -21 -1 -2 -9z"/>
<path d="M6910 520 c0 -5 5 -10 10 -10 6 0 10 5 10 10 0 6 -4 10 -10 10 -5 0
-10 -4 -10 -10z"/>
<path d="M6797 509 c7 -7 15 -10 18 -7 3 3 -2 9 -12 12 -14 6 -15 5 -6 -5z"/>
<path d="M945 500 c-3 -5 1 -10 10 -10 9 0 13 5 10 10 -3 6 -8 10 -10 10 -2 0
-7 -4 -10 -10z"/>
<path d="M6770 500 c0 -5 5 -10 11 -10 5 0 7 5 4 10 -3 6 -8 10 -11 10 -2 0
-4 -4 -4 -10z"/>
<path d="M6640 490 c0 -5 7 -10 15 -10 8 0 15 5 15 10 0 6 -7 10 -15 10 -8 0
-15 -4 -15 -10z"/>
<path d="M1380 310 c0 -5 5 -10 11 -10 5 0 7 5 4 10 -3 6 -8 10 -11 10 -2 0
-4 -4 -4 -10z"/>
<path d="M5205 250 c-3 -6 1 -7 9 -4 18 7 21 14 7 14 -6 0 -13 -4 -16 -10z"/>
<path d="M5485 240 c3 -5 11 -10 16 -10 6 0 7 5 4 10 -3 6 -11 10 -16 10 -6 0
-7 -4 -4 -10z"/>
<path d="M5743 244 c10 -11 78 -13 71 -3 -3 5 -21 9 -41 9 -20 0 -33 -3 -30
-6z"/>
<path d="M6480 239 c0 -5 5 -7 10 -4 6 3 10 8 10 11 0 2 -4 4 -10 4 -5 0 -10
-5 -10 -11z"/>
<path d="M6535 230 c3 -5 8 -10 11 -10 2 0 4 5 4 10 0 6 -5 10 -11 10 -5 0 -7
-4 -4 -10z"/>
<path d="M5440 216 c0 -2 7 -6 15 -10 8 -3 15 -1 15 4 0 6 -7 10 -15 10 -8 0
-15 -2 -15 -4z"/>
<path d="M5665 210 c-13 -6 -15 -9 -5 -9 8 0 22 4 30 9 18 12 2 12 -25 0z"/>
<path d="M5725 210 c3 -5 15 -10 26 -10 10 0 19 5 19 10 0 6 -12 10 -26 10
-14 0 -23 -4 -19 -10z"/>
<path d="M6058 173 c7 -3 16 -2 19 1 4 3 -2 6 -13 5 -11 0 -14 -3 -6 -6z"/>
<path d="M6014 131 c3 -5 15 -11 26 -14 17 -4 19 -3 9 9 -12 15 -44 20 -35 5z"/>
<path d="M960 120 c0 -5 5 -10 11 -10 5 0 7 5 4 10 -3 6 -8 10 -11 10 -2 0 -4
-4 -4 -10z"/>
<path d="M3365 120 c-3 -5 -1 -10 4 -10 6 0 11 5 11 10 0 6 -2 10 -4 10 -3 0
-8 -4 -11 -10z"/>
<path d="M4650 120 c0 -5 5 -10 11 -10 5 0 7 5 4 10 -3 6 -8 10 -11 10 -2 0
-4 -4 -4 -10z"/>
<path d="M5570 121 c0 -5 7 -11 15 -15 8 -3 15 -1 15 3 0 5 -7 11 -15 15 -8 3
-15 1 -15 -3z"/>
<path d="M5971 114 c0 -11 3 -14 6 -6 3 7 2 16 -1 19 -3 4 -6 -2 -5 -13z"/>
<path d="M5440 110 c0 -5 5 -10 11 -10 5 0 7 5 4 10 -3 6 -8 10 -11 10 -2 0
-4 -4 -4 -10z"/>
<path d="M390 100 c0 -5 5 -10 11 -10 5 0 7 5 4 10 -3 6 -8 10 -11 10 -2 0 -4
-4 -4 -10z"/>
<path d="M5510 92 c0 -5 7 -16 16 -23 14 -12 16 -11 13 5 -4 20 -29 35 -29 18z"/>
<path d="M2345 80 c3 -5 8 -10 11 -10 2 0 4 5 4 10 0 6 -5 10 -11 10 -5 0 -7
-4 -4 -10z"/>
<path d="M5990 86 c0 -2 7 -6 15 -10 8 -3 15 -1 15 4 0 6 -7 10 -15 10 -8 0
-15 -2 -15 -4z"/>
<path d="M7320 60 c0 -5 5 -10 11 -10 5 0 7 5 4 10 -3 6 -8 10 -11 10 -2 0 -4
-4 -4 -10z"/>
<path d="M5300 56 c0 -2 7 -6 15 -10 8 -3 15 -1 15 4 0 6 -7 10 -15 10 -8 0
-15 -2 -15 -4z"/>
<path d="M4540 24 c0 -8 5 -12 10 -9 6 4 8 11 5 16 -9 14 -15 11 -15 -7z"/>
<path d="M5480 31 c0 -6 4 -13 10 -16 6 -3 7 1 4 9 -7 18 -14 21 -14 7z"/>
<path d="M6190 15 c7 -9 15 -13 17 -11 7 7 -7 26 -19 26 -6 0 -6 -6 2 -15z"/>
<path d="M4338 3 c7 -3 16 -2 19 1 4 3 -2 6 -13 5 -11 0 -14 -3 -6 -6z"/>
</g>
</svg>
